RobotoCondensed-LightItalic.ufo
<glyph name="rsuper" format="2">
  <advance width="485"/>
  <unicode hex="02B3"/>
  <outline>
    <contour>
      <point x="327.7627457835646" y="1273.1190601601193" type="line"/>
      <point x="334.11394260953983" y="1453.9864367154223" type="line"/>
      <point x="255.8583301859009" y="1453.9300422883223" type="line"/>
      <point x="115.9290939094707" y="651.069533291052" type="line"/>
      <point x="219.6708817738401" y="651.0604540570155" type="line"/>
    </contour>
    <contour>
      <point x="580.5754656130119" y="1461.2959074902365" type="line"/>
      <point x="558.9148399118056" y="1465.3542562627247"/>
      <point x="537.4984190210032" y="1468.7670060797195"/>
      <point x="515.352334646918" y="1468.9204436185432" type="curve" smooth="yes"/>
      <point x="325.489145383481" y="1470.235896950234"/>
      <point x="263.5435178903609" y="1223.824856205746"/>
      <point x="240.64776006382385" y="1077.942558033642" type="curve"/>
      <point x="275.17143775232825" y="1078.98994357147" type="line"/>
      <point x="298.3149729108504" y="1188.96719524849"/>
      <point x="352.385401741436" y="1366.315148977703"/>
      <point x="495.0622672463445" y="1362.4665176310098" type="curve" smooth="yes"/>
      <point x="520.3556936055044" y="1361.7842411231354"/>
      <point x="542.7271330610113" y="1354.8234023412774"/>
      <point x="566.2571803953176" y="1346.574762516326" type="curve"/>
    </contour>
  </outline>
</glyph>
<glyph name="uni030C" format="2">
  <unicode hex="030C"/>
  <anchor x="-329.890376173709" y="1290" name="_top"/>
  <anchor x="-278.9196674363817" y="1585" name="top"/>
  <anchor x="-314.2066056950399" y="1392" name="parent_top"/>
  <outline>
    <contour>
      <point x="-310.18967389975535" y="1258.240287577888" type="line"/>
      <point x="-377.43881823549697" y="1258.328943420424" type="line"/>
      <point x="-521.2490558909673" y="1512.6500756099138" type="line"/>
      <point x="-516.8492627366354" y="1528.0353781653416" type="line"/>
      <point x="-423.3140447437483" y="1526.998526631416" type="line"/>
      <point x="-318.3797329748324" y="1343.7529226361798" type="line"/>
      <point x="-152.40229569507292" y="1526.9535001201523" type="line"/>
      <point x="-58.465235633080866" y="1528.3742967440226" type="line"/>
      <point x="-62.231425588974645" y="1515.1903139789422" type="line"/>
    </contour>
  </outline>
</glyph>
<glyph name="uni0349" format="2">
  <unicode hex="0349"/>
  <anchor x="-529.4992381098183" y="0" name="_bottom"/>
  <anchor x="-616.0630519315165" y="-501" name="bottom"/>
  <outline>
    <contour>
      <point x="-468.89330582901476" y="-114.62621419390656" type="line"/>
      <point x="-389.12637464801236" y="-114.94938146159005" type="line"/>
      <point x="-455.3475614761803" y="-501.0675699679995" type="line"/>
      <point x="-543.1672126134004" y="-501.49724889254003" type="line"/>
    </contour>
    <contour>
      <point x="-385.25056670933225" y="-114.5576286903098" type="line"/>
      <point x="-404.6241732292071" y="-209.17634368311414" type="line"/>
      <point x="-725.8558957169655" y="-209.11366880462234" type="line"/>
      <point x="-706.9131588382123" y="-114.6589396246354" type="line"/>
    </contour>
  </outline>
</glyph>
<glyph name="uni035B" format="2">
  <unicode hex="035B"/>
  <anchor x="-347.074595064469" y="1213" name="_top"/>
  <anchor x="-255.84566552782894" y="1741" name="top"/>
  <anchor x="-255.84566552782894" y="1741" name="parent_top"/>
  <outline>
    <contour>
      <point x="-321.32925279610555" y="1660.73763109915" type="curve"/>
      <point x="-363.10405074203027" y="1568.6846974182988"/>
      <point x="-411.06475034243755" y="1474.4368206965146"/>
      <point x="-441.0035852154727" y="1377.7912005791702" type="curve"/>
      <point x="-382.2214761420693" y="1379.0073311731321"/>
      <point x="-322.7445879707774" y="1376.60769440631"/>
      <point x="-264.1127879806106" y="1380.9404960351405" type="curve"/>
      <point x="-296.0177630409442" y="1316.7196392427174"/>
      <point x="-329.03022873033257" y="1248.8204176744075"/>
      <point x="-351.7799634638111" y="1180.8036176597236" type="curve"/>
      <point x="-325.3282501566416" y="1180.9512652430594"/>
      <point x="-298.87684863352405" y="1181.1396114052993"/>
      <point x="-272.42483188723514" y="1181.2185574800692" type="curve"/>
      <point x="-230.49094627329796" y="1273.8452890995034"/>
      <point x="-182.03945589109622" y="1368.3158123763155"/>
      <point x="-151.8973231568023" y="1465.528428756569" type="curve"/>
      <point x="-210.7162313767646" y="1464.0912259554295"/>
      <point x="-270.79457761272494" y="1467.140194629106"/>
      <point x="-329.34803233398094" y="1461.452057571834" type="curve"/>
      <point x="-297.12141405834" y="1525.401930115078"/>
      <point x="-263.69914062726275" y="1593.3561068563442"/>
      <point x="-240.92384694796448" y="1661.2560196826762" type="curve"/>
      <point x="-267.72564700968434" y="1661.0716050382377"/>
      <point x="-294.52699780001353" y="1660.839281837528"/>
    </contour>
  </outline>
</glyph>
<glyph name="uni035D" format="2">
  <unicode hex="035D"/>
  <anchor x="118.05855826784371" y="1171" name="_top_dd"/>
  <outline>
    <contour>
      <point x="636.1245564667832" y="1489.4281079603757" type="line"/>
      <point x="490.01622213323344" y="1367.3267258986639"/>
      <point x="328.37212335764946" y="1283.3007429567713"/>
      <point x="133.03011401635564" y="1286.0160530801966" type="curve" smooth="yes"/>
      <point x="-39.59023610058884" y="1288.4155256041165"/>
      <point x="-190.88092593271324" y="1357.8627922229696"/>
      <point x="-298.88241080525336" y="1492.243052148383" type="curve"/>
      <point x="-391.4865355026504" y="1493.4658187599848" type="line"/>
      <point x="-276.7804482064961" y="1302.9174237544146"/>
      <point x="-90.26997800880716" y="1201.0447086392837"/>
      <point x="132.38545903324518" y="1197.7924360333295" type="curve" smooth="yes"/>
      <point x="370.23871658965413" y="1194.3181726420357"/>
      <point x="592.9772571577935" y="1299.3048236237362"/>
      <point x="737.5734929991776" y="1488.4988381032424" type="curve"/>
    </contour>
  </outline>
</glyph>
<glyph name="uni0365" format="2">
  <unicode hex="0365"/>
  <anchor x="-339.95422379567265" y="1170" name="_top"/>
  <anchor x="-193.43503393379615" y="2018" name="_mkmktop"/>
  <outline>
    <contour>
      <point x="-203.44275019187182" y="1753.9309406804246" type="line"/>
      <point x="-273.90118416898275" y="1753.881346570521" type="line"/>
      <point x="-372.6833686147318" y="1202.122137102743" type="line"/>
      <point x="-292.5690365444435" y="1202.1041005203915" type="line"/>
    </contour>
    <contour>
      <point x="-259.44483201722966" y="1908.8451883616747" type="curve" smooth="yes"/>
      <point x="-262.66505262508474" y="1882.6685675482195"/>
      <point x="-245.34460768222345" y="1853.917915745305"/>
      <point x="-216.57782694376093" y="1853.7728023681682" type="curve" smooth="yes"/>
      <point x="-191.59660932936055" y="1853.646785178898"/>
      <point x="-167.82874504636152" y="1882.1749214701613"/>
      <point x="-164.91932621921143" y="1905.1380225400605" type="curve" smooth="yes"/>
      <point x="-161.7185291819771" y="1930.400877507643"/>
      <point x="-178.46780224283202" y="1960.7097170195545"/>
      <point x="-206.66084559686334" y="1961.2527831824882" type="curve" smooth="yes"/>
      <point x="-232.35945174641546" y="1961.7478004553354"/>
      <point x="-256.5572332961085" y="1932.31798292731"/>
    </contour>
  </outline>
</glyph>
<glyph name="uni0368" format="2">
  <unicode hex="0368"/>
  <anchor x="-344.8042237956726" y="1170" name="_top"/>
  <anchor x="-232.84144663706888" y="1818" name="_mkmktop"/>
  <outline>
    <contour>
      <point x="-311.47769616434806" y="1184.4297540797727" type="curve" smooth="yes"/>
      <point x="-203.94011948526182" y="1183.261762882982"/>
      <point x="-134.4123591957533" y="1267.8735590595127"/>
      <point x="-114.2877782983679" y="1365.644152803843" type="curve"/>
      <point x="-187.1374784452101" y="1365.569498356777" type="line"/>
      <point x="-209.39060668336" y="1308.6024130465162"/>
      <point x="-246.7061928792256" y="1257.0985159984946"/>
      <point x="-314.6062152200593" y="1258.4831446561989" type="curve" smooth="yes"/>
      <point x="-412.5822791294743" y="1260.4810890040972"/>
      <point x="-413.65159285348807" y="1390.8144694405498"/>
      <point x="-409.8874752051765" y="1460.1162342801442" type="curve" smooth="yes"/>
      <point x="-408.73649504941795" y="1480.4906840615233" type="line" smooth="yes"/>
      <point x="-400.6957908726218" y="1565.773304565295"/>
      <point x="-361.3097232322483" y="1691.5029450815932"/>
      <point x="-254.8035225952881" y="1689.3070591474313" type="curve" smooth="yes"/>
      <point x="-179.80588549623047" y="1687.7607993483184"/>
      <point x="-160.45661492107726" y="1625.1398006330783"/>
      <point x="-161.59748661212848" y="1561.5341302205502" type="curve"/>
      <point x="-90.49960897001255" y="1561.1779194444184" type="line"/>
      <point x="-88.50021489701517" y="1666.097812116363"/>
      <point x="-140.30638308496862" y="1758.8703867269712"/>
      <point x="-255.76553013519492" y="1760.8665785956525" type="curve" smooth="yes"/>
      <point x="-407.7527806423656" y="1763.4943107533625"/>
      <point x="-473.83956842680766" y="1611.4889584864995"/>
      <point x="-483.37604520965095" y="1481.5284906675429" type="curve" smooth="yes"/>
      <point x="-484.4313450801189" y="1459.2406325013048" type="line" smooth="yes"/>
      <point x="-489.1731752401153" y="1341.7168812782538"/>
      <point x="-458.0251470222171" y="1186.0214407980338"/>
    </contour>
  </outline>
</glyph>
<glyph name="uni1ABD" format="2">
  <unicode hex="1ABD"/>
  <anchor x="-604.1894984350546" y="-320" name="_markparent_bottom"/>
  <outline>
    <contour>
      <point x="-909.4332541057007" y="-537.499596151017" type="curve"/>
      <point x="-897.619812310585" y="-488.5827780810949" type="line"/>
      <point x="-951.897450172692" y="-451.8970862494901"/>
      <point x="-971.6880333159364" y="-397.69699879230615"/>
      <point x="-963.3489296032244" y="-332.2820849625813" type="curve" smooth="yes"/>
      <point x="-953.6352894546131" y="-256.0848154255997"/>
      <point x="-907.7659186003531" y="-197.30251976858904"/>
      <point x="-841.5020421495345" y="-161.65113040531878" type="curve"/>
      <point x="-841.2771003200585" y="-109.19065149012808" type="line"/>
      <point x="-936.1506403888742" y="-146.7930720171326"/>
      <point x="-1014.4993004821437" y="-225.90747859437232"/>
      <point x="-1022.7659839628977" y="-332.05974901948554" type="curve" smooth="yes"/>
      <point x="-1029.4848664871452" y="-418.33674708394085"/>
      <point x="-986.6531510688469" y="-498.78969721411215"/>
    </contour>
    <contour>
      <point x="-367.1075254602415" y="-540.0987750178159" type="line"/>
      <point x="-271.67682346688105" y="-501.09942115315397"/>
      <point x="-196.1344836798693" y="-420.5820512218868"/>
      <point x="-188.14872516554527" y="-313.95130219848744" type="curve" smooth="yes"/>
      <point x="-181.81306138442062" y="-229.35363081511622"/>
      <point x="-226.51630925697816" y="-149.51160485897702"/>
      <point x="-301.7626007563371" y="-111.51837316614781" type="curve"/>
      <point x="-313.91445747872484" y="-162.44367735981314" type="line"/>
      <point x="-258.9434190705216" y="-196.02070022133006"/>
      <point x="-239.580616465781" y="-249.53195491293013"/>
      <point x="-247.57490172951316" y="-313.54444209029504" type="curve" smooth="yes"/>
      <point x="-257.2435115586809" y="-390.96371627111176"/>
      <point x="-302.5222068167842" y="-449.9908753706924"/>
      <point x="-368.42945614954624" y="-488.50818342243815" type="curve"/>
    </contour>
  </outline>
</glyph>
<glyph name="uni1DC3" format="2">
  <unicode hex="1DC3"/>
  <anchor x="-257.50422379567266" y="1170" name="_top"/>
  <outline>
    <contour>
      <point x="46.173533183670926" y="1567.137114312489" type="line"/>
      <point x="-355.17414713206864" y="1311.933462510092" type="line"/>
      <point x="-323.20226430662825" y="1219.7273215138473" type="line"/>
      <point x="76.76604825130106" y="1475.238932580615" type="line"/>
    </contour>
    <contour>
      <point x="-504.8852708314162" y="1368.2338673058673" type="line"/>
      <point x="-320.40670739395165" y="1221.7455804254978" type="line"/>
      <point x="-267.09899040086293" y="1301.9155608335975" type="line"/>
      <point x="-450.407300474017" y="1447.1621370985697" type="line"/>
    </contour>
  </outline>
</glyph>
<glyph name="uni1DC8" format="2">
  <unicode hex="1DC8"/>
  <anchor x="-330.25422379567266" y="1170" name="_top"/>
  <outline>
    <contour>
      <point x="-463.5316187805607" y="1244.979970851264" type="line"/>
      <point x="-339.85277620013915" y="1245.461971151054" type="line"/>
      <point x="-177.4628084446083" y="1452.6410448256142" type="line"/>
      <point x="-92.93439158191947" y="1244.9899420253942" type="line"/>
      <point x="-6.361713065168885" y="1244.9898846575961" type="line"/>
      <point x="-91.67388689736009" y="1525.0715073830643" type="line"/>
      <point x="-250.38216913804655" y="1524.571703055191" type="line"/>
      <point x="-394.4296824605326" y="1323.7486786232168" type="line"/>
      <point x="-462.4608982440078" y="1525.0822458784173" type="line"/>
      <point x="-578.9374615225784" y="1524.9858118467002" type="line"/>
    </contour>
  </outline>
</glyph>
<glyph name="uni1DCC" format="2">
  <unicode hex="1DCC"/>
  <anchor x="-365.1742237956726" y="1170" name="_top"/>
  <outline>
    <contour>
      <point x="-93.52656614023888" y="1232.3872190456236" type="curve" smooth="yes"/>
      <point x="63.457448162286425" y="1228.7771010552117"/>
      <point x="152.63367788295545" y="1345.931919563914"/>
      <point x="172.76367029710343" y="1490.1263569931912" type="curve"/>
      <point x="81.77846040870237" y="1489.72024864292" type="line"/>
      <point x="63.14548607972823" y="1399.428323443373"/>
      <point x="14.53705555508462" y="1318.709890474622"/>
      <point x="-88.62000149819117" y="1320.1587800687319" type="curve" smooth="yes"/>
      <point x="-190.23225085602263" y="1321.585972109046"/>
      <point x="-215.36032926865653" y="1404.1020758985655"/>
      <point x="-211.31086745471077" y="1491.1528750549012" type="curve"/>
      <point x="-791.2307757206266" y="1490.9099784766117" type="line"/>
      <point x="-809.0586923141653" y="1392.0817976589854" type="line"/>
      <point x="-293.3034000641556" y="1392.875965846672" type="line"/>
      <point x="-271.3229640236024" y="1293.487053895016"/>
      <point x="-195.56484617066747" y="1234.7337651706237"/>
    </contour>
  </outline>
</glyph>
<glyph name="uni1DCD" format="2">
  <unicode hex="1DCD"/>
  <anchor x="118.85577620432734" y="1170" name="_top"/>
  <outline>
    <contour>
      <point x="209.48433212470678" y="1495.8583667303883" type="line"/>
      <point x="125.66994270443696" y="1495.7555751203865" type="line"/>
      <point x="-522.2777091769154" y="1274.464318391238" type="line"/>
      <point x="-524.3511399964985" y="1252.7538985804533" type="line"/>
      <point x="-410.65044796041593" y="1210.4960075031331" type="line"/>
      <point x="168.03413648265303" y="1415.3557090684005" type="line"/>
      <point x="674.6537952271644" y="1209.8606480030694" type="line"/>
      <point x="794.4418535872145" y="1252.3804373715968" type="line"/>
      <point x="796.1630596630529" y="1272.2875916498117" type="line"/>
    </contour>
  </outline>
</glyph>
<glyph name="uni1DF1" format="2">
  <unicode hex="1DF1"/>
  <anchor x="-350.62422379567266" y="1170" name="_top"/>
  <outline>
    <contour>
      <point x="-441.1480058599628" y="1381.938320001445" type="line"/>
      <point x="-501.0455146982027" y="1202.9805180828653" type="line"/>
      <point x="-454.1070493676686" y="1203.024030394955" type="line"/>
      <point x="-305.99809154140564" y="1555.723519530224" type="line"/>
      <point x="-224.50940973163554" y="1752.927837803723" type="line"/>
      <point x="-288.37860542646985" y="1753.036752916014" type="line"/>
    </contour>
    <contour>
      <point x="-477.41364992368705" y="1754.5921641928478" type="line"/>
      <point x="-549.8473353398922" y="1754.7419578213237" type="line"/>
      <point x="-512.4665428159567" y="1201.371600633881" type="line"/>
      <point x="-463.63130804769276" y="1201.5095951888645" type="line"/>
      <point x="-461.2902747787009" y="1377.4530569842882" type="line"/>
    </contour>
    <contour>
      <point x="-165.40126805171482" y="1381.9080679429728" type="line"/>
      <point x="-223.0765871349623" y="1202.7752541580214" type="line"/>
      <point x="-170.19598695400884" y="1202.8537923806286" type="line"/>
      <point x="54.23880639181634" y="1753.6092221876909" type="line"/>
      <point x="-28.0917629068273" y="1753.4632937054835" type="line"/>
    </contour>
    <contour>
      <point x="-214.6724855218107" y="1754.6527838166091" type="line"/>
      <point x="-277.2557637625931" y="1754.798376818178" type="line"/>
      <point x="-262.2919561490205" y="1593.2254891233476" type="line"/>
      <point x="-231.84519409733633" y="1201.354261886306" type="line"/>
      <point x="-187.3575056588599" y="1201.3943590194476" type="line"/>
      <point x="-188.8308095665784" y="1377.3818386304413" type="line"/>
    </contour>
  </outline>
</glyph>
<glyph name="afii300" format="2">
  <unicode hex="200F"/>
  <outline>
    <contour>
      <point x="-144.83047020414176" y="1189.0867914991084" type="line"/>
      <point x="-528.0077251748528" y="1189.0826159352985" type="line"/>
      <point x="-512.4963708588932" y="1274.9169255430104" type="line"/>
      <point x="-129.31911588818232" y="1274.9211011068166" type="line"/>
    </contour>
    <contour>
      <point x="-450.3999780259081" y="1010.1357407286642" type="line"/>
      <point x="-601.5339921087514" y="1225.3643538614251" type="line"/>
      <point x="-527.5402519256976" y="1269.2488173623824" type="line"/>
      <point x="-337.6032525984826" y="1010.0945795598607" type="line"/>
    </contour>
    <contour>
      <point x="-272.75298794394496" y="1462.4129963082125" type="line"/>
      <point x="-550.6826475499245" y="1191.9817416581463" type="line"/>
      <point x="-599.1095871818217" y="1224.9669471169916" type="line"/>
      <point x="-367.8186738847307" y="1462.1921041993244" type="line"/>
    </contour>
    <contour>
      <point x="-388.44500782872126" y="-200.39081622290712" type="line"/>
      <point x="-456.6567600508217" y="-200.07386203479712" type="line"/>
      <point x="-201.90521339991506" y="1275.0942715405038" type="line"/>
      <point x="-125.79606302594962" y="1275.516733668578" type="line"/>
    </contour>
  </outline>
</glyph>
<glyph name="uni2DF9" format="2">
  <unicode hex="2DF9"/>
  <anchor x="-351.59422379567263" y="1170" name="_top"/>
  <outline>
    <contour>
      <point x="-326.6867343676732" y="1191.1014597591775" type="curve" smooth="yes"/>
      <point x="-217.3782192132265" y="1190.923222655009"/>
      <point x="-132.77326623908948" y="1273.586762940242"/>
      <point x="-126.91380598643096" y="1382.009310072493" type="curve" smooth="yes"/>
      <point x="-117.21500230060369" y="1561.4744748504168"/>
      <point x="-330.3006954069881" y="1678.0494726204718"/>
      <point x="-342.40396879782446" y="1867.2992909659895" type="curve" smooth="yes"/>
      <point x="-347.35473325103544" y="1986.4607702527774" type="line"/>
      <point x="-374.1389532350774" y="1986.507025544811"/>
      <point x="-400.92275902883614" y="1986.5818418902045"/>
      <point x="-427.7062987489145" y="1986.7824692046102" type="curve"/>
      <point x="-418.1080366622944" y="1871.220034957377" type="line" smooth="yes"/>
      <point x="-401.43453134919696" y="1703.2871989729317"/>
      <point x="-184.64538963901418" y="1534.9007431679377"/>
      <point x="-204.13291109299104" y="1384.0196922233683" type="curve" smooth="yes"/>
      <point x="-212.493277557899" y="1319.2900198796528"/>
      <point x="-259.49696159102683" y="1270.4697995083807"/>
      <point x="-326.4585233957567" y="1270.0040582560885" type="curve" smooth="yes"/>
      <point x="-388.3208505507917" y="1269.5737839771982"/>
      <point x="-418.2329332493544" y="1311.8604433866305"/>
      <point x="-412.01278506322427" y="1370.848574651086" type="curve" smooth="yes"/>
      <point x="-392.9511684772514" y="1551.6174418290955"/>
      <point x="-99.59465939606748" y="1685.1460657852422"/>
      <point x="-32.651082447750426" y="1870.8994598212275" type="curve" smooth="yes"/>
      <point x="6.8638585036515" y="1984.8479911617553" type="line"/>
      <point x="-20.527978023009094" y="1985.0602554196928"/>
      <point x="-47.91820925313349" y="1985.1577514646647"/>
      <point x="-75.31070930323872" y="1985.03962890386" type="curve"/>
      <point x="-118.72506408024442" y="1867.7877731112687" type="line" smooth="yes"/>
      <point x="-190.773001489825" y="1676.8842197828276"/>
      <point x="-484.3755321273107" y="1570.2055085227569"/>
      <point x="-494.1709834878207" y="1365.9582423600598" type="curve" smooth="yes"/>
      <point x="-499.01388445184756" y="1264.977772364885"/>
      <point x="-427.91495997489614" y="1191.2665212437914"/>
    </contour>
  </outline>
</glyph>
<glyph name="uni2DFA" format="2">
  <unicode hex="2DFA"/>
  <anchor x="-341.89422379567264" y="1170" name="_top"/>
  <outline>
    <contour>
      <point x="-367.12295941597193" y="1562.50676321297" type="line"/>
      <point x="-375.49965938827984" y="1495.0731888133976" type="line"/>
      <point x="-225.4372554211947" y="1493.7748583202642" type="line"/>
      <point x="-163.01458618260057" y="1489.3928515455423"/>
      <point x="-139.48056697926853" y="1449.9207452268079"/>
      <point x="-147.2548625318864" y="1389.3508431728642" type="curve" smooth="yes"/>
      <point x="-156.66981068533877" y="1315.9985395926972"/>
      <point x="-203.7351323076246" y="1272.515285205565"/>
      <point x="-277.1646441408633" y="1268.5616007385227" type="curve"/>
      <point x="-391.15393198300484" y="1268.9489703930092" type="line"/>
      <point x="-260.07714418036926" y="2019.9256834829405" type="line"/>
      <point x="-335.7041539906443" y="2019.9313981753564" type="line"/>
      <point x="-478.17880527823945" y="1201.949796137982" type="line"/>
      <point x="-275.162591926433" y="1201.0335135628104" type="line" smooth="yes"/>
      <point x="-159.18574931764255" y="1203.573154068954"/>
      <point x="-79.69138406278584" y="1271.5730430726605"/>
      <point x="-73.69236169234897" y="1390.0884402276113" type="curve" smooth="yes"/>
      <point x="-68.43016481748423" y="1494.0472711873829"/>
      <point x="-126.66853603070736" y="1557.8091778672056"/>
      <point x="-229.67005229487808" y="1561.8428579052527" type="curve" smooth="yes"/>
    </contour>
    <contour>
      <point x="-154.90146125712783" y="1862.766772538724" type="line"/>
      <point x="-454.8219676009553" y="1862.766142730982" type="line"/>
      <point x="-463.8905211672847" y="1792.2296143442234" type="line"/>
      <point x="-163.9700148234573" y="1792.2302441519662" type="line"/>
    </contour>
  </outline>
</glyph>
<glyph name="uni2DFD" format="2">
  <unicode hex="2DFD"/>
  <anchor x="-350.62422379567266" y="1170" name="_top"/>
  <outline>
    <contour>
      <point x="-285.66675941738333" y="1614.2451507871695" type="line"/>
      <point x="-218.61713695362792" y="1752.644448363273" type="line"/>
      <point x="-288.75463694213727" y="1752.8160057673733" type="line"/>
      <point x="-573.623943553321" y="1202.462077489585" type="line"/>
      <point x="-488.23552266722027" y="1202.6850054309728" type="line"/>
    </contour>
    <contour>
      <point x="-194.2646791603836" y="1201.9779034587164" type="line"/>
      <point x="-121.7481346214287" y="1201.9789553628113" type="line"/>
      <point x="-217.15111904612934" y="1754.864278996842" type="line"/>
      <point x="-282.1174334282657" y="1755.0242590090622" type="line"/>
      <point x="-259.5610702079901" y="1616.0933952621413" type="line"/>
    </contour>
    <contour>
      <point x="-183.92670808288335" y="1430.7517563900215" type="line"/>
      <point x="-426.6100641964527" y="1430.7507093007607" type="line"/>
      <point x="-435.8002748841898" y="1362.2513798271482" type="line"/>
      <point x="-193.11691877062054" y="1362.2524269164087" type="line"/>
    </contour>
    <contour>
      <point x="-273.7598886571909" y="1414.7872816354477" type="line"/>
      <point x="-343.83350673873787" y="1414.7757916077553" type="line"/>
      <point x="-378.3994067171452" y="1202.2156569540023" type="line"/>
      <point x="-308.3257886355981" y="1202.2271469816953" type="line"/>
    </contour>
  </outline>
</glyph>
<glyph name="uniA67A" format="2">
  <unicode hex="A67A"/>
  <anchor x="-327.34422379567263" y="1170" name="_top"/>
  <outline>
    <contour>
      <point x="-397.1954012664113" y="1562.5346421036943" type="line"/>
      <point x="-405.5676301116127" y="1495.0984897749809" type="line"/>
      <point x="-256.47956021451705" y="1493.822929265669" type="line"/>
      <point x="-194.05515292786728" y="1489.4760310410204"/>
      <point x="-169.5796429836598" y="1450.1776204361422"/>
      <point x="-177.4065615139502" y="1389.3417648998345" type="curve" smooth="yes"/>
      <point x="-186.92222435690505" y="1315.3799001115558"/>
      <point x="-234.99624022880465" y="1273.5357076781404"/>
      <point x="-308.498014462223" y="1269.6589295328079" type="curve"/>
      <point x="-421.1693710521432" y="1269.872537749564" type="line"/>
      <point x="-336.2074426385638" y="1753.9235686802356" type="line"/>
      <point x="-411.85001270233306" y="1753.9202370458381" type="line"/>
      <point x="-508.29490294443116" y="1201.9055018706883" type="line"/>
      <point x="-306.2222378100393" y="1200.8946015474794" type="line" smooth="yes"/>
      <point x="-190.1123185920552" y="1203.31575002248"/>
      <point x="-109.71012734121463" y="1271.0962757914774"/>
      <point x="-103.69301309849827" y="1390.046198002586" type="curve" smooth="yes"/>
      <point x="-98.40918924156196" y="1494.4999961867532"/>
      <point x="-157.3596129441638" y="1558.2752800960243"/>
      <point x="-260.69880658331886" y="1562.0348012867032" type="curve" smooth="yes"/>
    </contour>
  </outline>
</glyph>
<glyph name="uniA69F" format="2">
  <unicode hex="A69F"/>
  <anchor x="-338.01422379567265" y="1170" name="_top"/>
  <outline>
    <contour>
      <point x="-335.5317464667314" y="1515.6877579082734" type="line"/>
      <point x="-478.28740803762173" y="1515.6868535489439" type="line"/>
      <point x="-489.031181968019" y="1444.3119663309164" type="line"/>
      <point x="-346.27552039629234" y="1444.3128706884222" type="line"/>
    </contour>
    <contour>
      <point x="-418.78291603796794" y="1753.9234529708258" type="line"/>
      <point x="-489.2419705261516" y="1753.8734080258944" type="line"/>
      <point x="-588.0225941759476" y="1202.129900640524" type="line"/>
      <point x="-507.90833784223753" y="1202.1113675488714" type="line"/>
    </contour>
    <contour>
      <point x="-199.36511758973688" y="1186.5216958194355" type="curve" smooth="yes"/>
      <point x="-83.82374951984986" y="1185.231696634793"/>
      <point x="-23.730820655552638" y="1282.7987928439845"/>
      <point x="-7.464192920599345" y="1384.9061079637493" type="curve"/>
      <point x="-76.71905806833087" y="1384.745546388163" type="line"/>
      <point x="-95.4228165548185" y="1321.3249829457"/>
      <point x="-126.93960098905276" y="1259.8770643434668"/>
      <point x="-202.50765885049537" y="1260.7638942112462" type="curve" smooth="yes"/>
      <point x="-304.99340938641274" y="1261.966616990806"/>
      <point x="-304.19105213962996" y="1389.9447386780407"/>
      <point x="-300.3415523794602" y="1463.0557753881953" type="curve" smooth="yes"/>
      <point x="-299.3096107667372" y="1483.4095993720568" type="line" smooth="yes"/>
      <point x="-291.21539831697027" y="1573.2110170928377"/>
      <point x="-252.83233559067315" y="1694.2894458289786"/>
      <point x="-142.77306983704005" y="1692.8031446546256" type="curve" smooth="yes"/>
      <point x="-70.93529035875896" y="1691.8330075628473"/>
      <point x="-50.97588467169406" y="1641.0085035228012"/>
      <point x="-52.93076010875685" y="1577.7745652753456" type="curve"/>
      <point x="15.197758425662713" y="1577.351297746322" type="line"/>
      <point x="19.108811436064336" y="1678.3886221725638"/>
      <point x="-35.30713586308565" y="1762.3792689455356"/>
      <point x="-144.11443491404833" y="1764.6246239705147" type="curve" smooth="yes"/>
      <point x="-295.5365277768889" y="1767.7493808578554"/>
      <point x="-365.00436390556956" y="1614.0267488344773"/>
      <point x="-374.15416042515443" y="1484.2651807965697" type="curve" smooth="yes"/>
      <point x="-375.06266906470245" y="1461.878182622398" type="line" smooth="yes"/>
      <point x="-379.0805118559687" y="1345.0065302984071"/>
      <point x="-344.992819325032" y="1188.147603662125"/>
    </contour>
    <contour>
      <point x="-340.2859869981404" y="1443.2397166410121" type="line"/>
      <point x="-116.03089090190862" y="1443.240940717904" type="line"/>
      <point x="-107.016496265034" y="1510.760008151762" type="line"/>
      <point x="-331.27159236038347" y="1510.7587840726037" type="line"/>
    </contour>
  </outline>
</glyph>
<glyph name="uniA7FE" format="2">
  <advance width="485"/>
  <unicode hex="A7FE"/>
  <outline>
    <contour>
      <point x="463.0426842028386" y="1535.939721550946" type="line"/>
      <point x="348.60951822208943" y="1535.9444782298388" type="line"/>
      <point x="81.7033071421158" y="0.0" type="line"/>
      <point x="196.13647312286548" y="0.0" type="line"/>
    </contour>
  </outline>
</glyph>
<glyph name="uniFE25" format="2">
  <unicode hex="FE25"/>
  <anchor x="-568.8742237956727" y="1170" name="_top"/>
  <outline>
    <contour>
      <point x="-299.70137753620025" y="1455.911221059937" type="line"/>
      <point x="-738.1116198588265" y="1455.9149301685263" type="line"/>
      <point x="-755.9693833912446" y="1357.0885416055942" type="line"/>
      <point x="-317.55914106861707" y="1357.0848324970045" type="line"/>
    </contour>
  </outline>
</glyph>
<glyph name="carondotcomb" format="2">
  <outline>
    <contour>
      <point x="-354.333883935217" y="1565.5988704216895" type="curve" smooth="yes"/>
      <point x="-357.4046411139713" y="1523.79886622859"/>
      <point x="-332.0592585097721" y="1483.0805270508822"/>
      <point x="-286.72322666341796" y="1483.981728656349" type="curve" smooth="yes"/>
      <point x="-242.39273393763375" y="1484.8629418898101"/>
      <point x="-212.63177608167499" y="1524.7990996575356"/>
      <point x="-209.53668130552165" y="1566.3634469812066" type="curve" smooth="yes"/>
      <point x="-206.39481156447016" y="1608.555940138103"/>
      <point x="-232.10449257864605" y="1650.107447905884"/>
      <point x="-278.00181863850213" y="1649.023299768906" type="curve" smooth="yes"/>
      <point x="-322.16807069582876" y="1647.980041609971"/>
      <point x="-351.31918722389895" y="1606.635763877764"/>
    </contour>
    <contour>
      <point x="-435.5739861736325" y="1467.2484967726684" type="line"/>
      <point x="-536.4977645838455" y="1467.486642625092" type="line"/>
      <point x="-538.1106261259982" y="1449.5024465522608" type="line"/>
      <point x="-372.7728603312145" y="1259.2442709531833" type="line"/>
      <point x="-288.4325072311887" y="1259.2994858878005" type="line"/>
      <point x="-67.39352574065654" y="1449.686161422241" type="line"/>
      <point x="-66.14997360227746" y="1467.1189634274158" type="line"/>
      <point x="-171.15566782872548" y="1466.2461242251654" type="line"/>
      <point x="-328.7601368260594" y="1331.636325118471" type="line"/>
    </contour>
  </outline>
</glyph>
<glyph name="tildemacroncomb" format="2">
  <outline>
    <contour>
      <point x="-145.78847154715513" y="1404.4499513769301" type="line"/>
      <point x="-161.5253291305528" y="1360.553442130302"/>
      <point x="-186.3585404642886" y="1310.6789655338139"/>
      <point x="-240.25781141392434" y="1308.2763403407373" type="curve" smooth="yes"/>
      <point x="-309.3935837004515" y="1305.1945296722104"/>
      <point x="-342.81184707910694" y="1393.782238257137"/>
      <point x="-414.8580462205105" y="1394.3446270476736" type="curve" smooth="yes"/>
      <point x="-504.9834751100528" y="1395.0481413420268"/>
      <point x="-550.2411508452586" y="1310.4044713001142"/>
      <point x="-563.2970941038951" y="1233.2978850451227" type="curve"/>
      <point x="-505.7678077909211" y="1218.63756224287" type="line"/>
      <point x="-489.9132437281468" y="1262.1076702613238"/>
      <point x="-465.2029851327458" y="1307.5508625059108"/>
      <point x="-412.35009357690535" y="1309.5727773204733" type="curve" smooth="yes"/>
      <point x="-343.38536960220364" y="1312.2110586515778"/>
      <point x="-312.3323208991536" y="1224.742649477534"/>
      <point x="-238.44867806020272" y="1224.8793796807863" type="curve" smooth="yes"/>
      <point x="-147.26899720939468" y="1225.0481181974073"/>
      <point x="-103.42668095818898" y="1310.5901921508475"/>
      <point x="-90.52826363963638" y="1388.6214213742894" type="curve"/>
    </contour>
    <contour>
      <point x="-18.513740567943245" y="1600.9082794120006" type="line"/>
      <point x="-533.5539025874365" y="1600.9124435554759" type="line"/>
      <point x="-551.2109924857152" y="1503.0916844585854" type="line"/>
      <point x="-36.17083046622018" y="1503.0875203151077" type="line"/>
    </contour>
  </outline>
</glyph>
<glyph name="uni02E5_uni02E6" format="2">
  <advance width="771"/>
  <outline>
    <contour>
      <point x="592" y="0" type="line"/>
      <point x="592" y="1456" type="line"/>
      <point x="481" y="1456" type="line"/>
      <point x="481" y="1155" type="line"/>
      <point x="229" y="1456" type="line"/>
      <point x="166" y="1382" type="line"/>
      <point x="481" y="1012" type="line"/>
      <point x="481" y="0" type="line"/>
    </contour>
  </outline>
</glyph>
<glyph name="uni02E5_uni02E8_uni02E7" format="2">
  <advance width="1023"/>
  <outline>
    <contour>
      <point x="844" y="0" type="line"/>
      <point x="844" y="1456" type="line"/>
      <point x="733" y="1456" type="line"/>
      <point x="733" y="781" type="line"/>
      <point x="518" y="517" type="line"/>
      <point x="233" y="1456" type="line"/>
      <point x="146" y="1417" type="line"/>
      <point x="481" y="337" type="line"/>
      <point x="733" y="640" type="line"/>
      <point x="733" y="0" type="line"/>
    </contour>
  </outline>
</glyph>
<glyph name="uni02E6_uni02E5_uni02E9" format="2">
  <advance width="1023"/>
  <outline>
    <contour>
      <point x="844" y="0" type="line"/>
      <point x="844" y="1456" type="line"/>
      <point x="733" y="1456" type="line"/>
      <point x="733" y="327" type="line"/>
      <point x="436" y="1456" type="line"/>
      <point x="121" y="1085" type="line"/>
      <point x="184" y="1011" type="line"/>
      <point x="396" y="1271" type="line"/>
      <point x="733" y="0" type="line"/>
    </contour>
  </outline>
</glyph>
<glyph name="uni02E6_uni02E8_uni02E5" format="2">
  <advance width="1023"/>
  <outline>
    <contour>
      <point x="844" y="0" type="line"/>
      <point x="844" y="1456" type="line"/>
      <point x="733" y="1456" type="line"/>
      <point x="460" y="572" type="line"/>
      <point x="222" y="1119" type="line"/>
      <point x="141" y="1067" type="line"/>
      <point x="471" y="338" type="line"/>
      <point x="733" y="1184" type="line"/>
      <point x="733" y="0" type="line"/>
    </contour>
  </outline>
</glyph>
<glyph name="uni02E6_uni02E8_uni02E9" format="2">
  <advance width="1023"/>
  <outline>
    <contour>
      <point x="844" y="0" type="line"/>
      <point x="844" y="1456" type="line"/>
      <point x="733" y="1456" type="line"/>
      <point x="733" y="143" type="line"/>
      <point x="498" y="427" type="line"/>
      <point x="169" y="1152" type="line"/>
      <point x="88" y="1100" type="line"/>
      <point x="419" y="370" type="line"/>
      <point x="733" y="0" type="line"/>
    </contour>
  </outline>
</glyph>
<glyph name="uni02E7_uni02E5" format="2">
  <advance width="771"/>
  <outline>
    <contour>
      <point x="592" y="0" type="line"/>
      <point x="592" y="1456" type="line"/>
      <point x="481" y="1456" type="line"/>
      <point x="151" y="727" type="line"/>
      <point x="232" y="675" type="line"/>
      <point x="481" y="1239" type="line"/>
      <point x="481" y="0" type="line"/>
    </contour>
  </outline>
</glyph>
<glyph name="uni02E8_uni02E5_uni02E9" format="2">
  <advance width="1023"/>
  <outline>
    <contour>
      <point x="844" y="1456" type="line"/>
      <point x="733" y="1456" type="line"/>
      <point x="733" y="332" type="line"/>
      <point x="433" y="1456" type="line"/>
      <point x="102" y="377" type="line"/>
      <point x="189" y="338" type="line"/>
      <point x="431" y="1148" type="line"/>
      <point x="733" y="0" type="line"/>
      <point x="844" y="0" type="line"/>
    </contour>
  </outline>
</glyph>
<glyph name="uni02E8_uni02E6_uni02E8" format="2">
  <advance width="1023"/>
  <outline>
    <contour>
      <point x="844" y="1456" type="line"/>
      <point x="733" y="1456" type="line"/>
      <point x="733" y="551" type="line"/>
      <point x="483" y="1116" type="line"/>
      <point x="154" y="390" type="line"/>
      <point x="235" y="338" type="line"/>
      <point x="484" y="908" type="line"/>
      <point x="733" y="338" type="line"/>
      <point x="733" y="0" type="line"/>
      <point x="844" y="0" type="line"/>
    </contour>
  </outline>
</glyph>
<glyph name="uni02E9_uni02E5_uni02E5" format="2">
  <advance width="1023"/>
  <outline>
    <contour>
      <point x="733" y="1349" type="line"/>
      <point x="733" y="0" type="line"/>
      <point x="844" y="0" type="line"/>
      <point x="844" y="1456" type="line"/>
      <point x="398" y="1456" type="line"/>
      <point x="23" y="32" type="line"/>
      <point x="114" y="0" type="line"/>
      <point x="467" y="1349" type="line"/>
    </contour>
  </outline>
</glyph>
<glyph name="uni02E9_uni02E6" format="2">
  <advance width="771"/>
  <outline>
    <contour>
      <point x="592" y="1456" type="line"/>
      <point x="481" y="1456" type="line"/>
      <point x="481" y="1118" type="line"/>
      <point x="146" y="39" type="line"/>
      <point x="234" y="0" type="line"/>
      <point x="481" y="813" type="line"/>
      <point x="481" y="0" type="line"/>
      <point x="592" y="0" type="line"/>
    </contour>
  </outline>
</glyph>
<glyph name="uni02E9_uni02E6_uni02E9" format="2">
  <advance width="1023"/>
  <outline>
    <contour>
      <point x="844" y="1456" type="line"/>
      <point x="733" y="1456" type="line"/>
      <point x="733" y="272" type="line"/>
      <point x="471" y="1118" type="line"/>
      <point x="136" y="39" type="line"/>
      <point x="224" y="0" type="line"/>
      <point x="476" y="839" type="line"/>
      <point x="733" y="0" type="line"/>
      <point x="844" y="0" type="line"/>
    </contour>
  </outline>
</glyph>
